<?xml version="1.0" encoding="UTF-8"?>
<!DOCTYPE svg PUBLIC "-//W3C//DTD SVG 1.1//EN" "http://www.w3.org/Graphics/SVG/1.1/DTD/svg11.dtd">
<!-- Creator: CorelDRAW X6 -->
<svg xmlns="http://www.w3.org/2000/svg" xml:space="preserve" width="1237px" height="879px" version="1.1" style="shape-rendering:geometricPrecision; text-rendering:geometricPrecision; image-rendering:optimizeQuality; fill-rule:evenodd; clip-rule:evenodd"
viewBox="0 0 124025 88182"
 xmlns:xlink="http://www.w3.org/1999/xlink">
 <defs>
  <style type="text/css">
   <![CDATA[
    .fil1 {fill:#008688;fill-rule:nonzero}
    .fil0 {fill:#5A585A;fill-rule:nonzero}
   ]]>
  </style>
 </defs>
 <g id="Ebene_x0020_1">
  <metadata id="CorelCorpID_0Corel-Layer"/>
  <path class="fil0" d="M43694 23042c354,0 691,-23 1009,-71 319,-47 598,-143 838,-290 240,-147 430,-362 571,-650 141,-287 212,-665 212,-1136l0 -10160c0,-469 -71,-848 -212,-1135 -141,-287 -331,-509 -571,-665 -240,-157 -519,-262 -838,-314 -318,-52 -655,-78 -1009,-78l-94 0 0 -1347 5729 0 0 13542c0,502 71,904 211,1206 141,303 329,535 563,697 236,162 515,269 838,321 323,52 663,78 1018,78l423 0 0 1346 -9112 0 0 -1346 424 0z"/>
  <path class="fil0" d="M63754 8936c-835,0 -1532,138 -2090,414 -558,276 -1004,696 -1338,1260 -335,563 -572,1273 -713,2129 -141,856 -211,1863 -211,3021 0,1118 70,2103 211,2959 141,857 382,1576 720,2161 339,584 788,1025 1346,1322 557,298 1260,446 2105,446 710,0 1314,-148 1809,-446 496,-297 903,-738 1220,-1322 320,-585 552,-1308 697,-2169 147,-861 220,-1855 220,-2982 0,-1138 -73,-2132 -220,-2983 -145,-850 -377,-1558 -697,-2122 -317,-562 -730,-985 -1236,-1267 -507,-281 -1115,-422 -1823,-422zm7092 6825c0,1544 -144,2881 -431,4008 -288,1126 -707,2056 -1260,2786 -553,732 -1237,1272 -2050,1621 -814,349 -1748,524 -2803,524 -616,0 -1173,-68 -1675,-204 -500,-135 -952,-329 -1354,-578 -402,-251 -757,-549 -1065,-893 -308,-345 -577,-726 -806,-1143l-203 0 -564 2505 -5135 0 0 -1346 251 0c365,0 707,-26 1025,-78 318,-53 595,-160 829,-321 236,-162 423,-394 565,-697 140,-302 211,-704 211,-1206l0 -17189c0,-470 -71,-848 -211,-1135 -141,-287 -332,-508 -572,-666 -240,-157 -520,-258 -838,-305 -318,-46 -654,-70 -1009,-70l-251 0 0 -1347 5902 0 0 5887c0,365 -5,784 -16,1260 -10,476 -26,931 -46,1370 -22,501 -43,1018 -63,1550l125 0c240,-490 511,-934 813,-1331 303,-397 653,-734 1051,-1010 395,-276 845,-490 1346,-641 501,-151 1065,-227 1690,-227 1054,0 1988,175 2803,525 814,349 1498,887 2050,1611 553,726 973,1647 1260,2764 287,1116 431,2442 431,3976z"/>
  <path class="fil0" d="M76486 15761c0,1190 78,2239 235,3146 157,908 410,1668 760,2278 349,611 803,1073 1363,1386 557,313 1238,470 2041,470 804,0 1483,-157 2036,-470 553,-313 1002,-774 1347,-1386 344,-610 591,-1370 743,-2278 152,-908 227,-1957 227,-3146 0,-1190 -79,-2233 -234,-3131 -158,-898 -408,-1646 -752,-2246 -344,-601 -797,-1052 -1354,-1354 -559,-303 -1240,-455 -2045,-455 -803,0 -1481,152 -2034,455 -554,302 -1002,753 -1347,1354 -344,600 -595,1349 -751,2246 -157,898 -235,1941 -235,3131zm11868 0c0,3017 -640,5261 -1917,6732 -1280,1472 -3151,2207 -5615,2207 -1158,0 -2196,-182 -3114,-548 -918,-365 -1699,-918 -2341,-1660 -643,-740 -1133,-1672 -1472,-2795 -340,-1122 -509,-2434 -509,-3938 0,-2996 636,-5224 1903,-6684 1268,-1462 3144,-2192 5628,-2192 1158,0 2197,180 3116,540 918,359 1699,908 2340,1644 643,736 1132,1659 1471,2770 340,1112 510,2420 510,3922z"/>
  <path class="fil0" d="M98902 24388l-9253 0 0 -1346 95 0c365,0 707,-26 1025,-78 320,-53 597,-160 831,-322 234,-161 422,-394 563,-697 141,-302 211,-703 211,-1205l0 -10003c0,-470 -71,-848 -211,-1135 -142,-287 -332,-509 -572,-665 -239,-157 -519,-262 -837,-314 -319,-52 -654,-78 -1010,-78l-95 0 0 -1347 4931 0 611 3179 157 0c209,-480 423,-933 641,-1354 219,-423 488,-793 807,-1112 319,-318 712,-569 1182,-751 470,-183 1058,-274 1769,-274 1169,0 2037,203 2608,610 567,409 853,982 853,1723 0,334 -55,642 -165,924 -109,282 -285,524 -526,728 -240,204 -547,360 -923,470 -376,109 -836,165 -1377,165 0,-888 -126,-1527 -377,-1919 -249,-390 -689,-586 -1315,-586 -397,0 -751,111 -1064,336 -314,225 -587,522 -822,892 -235,371 -434,797 -597,1278 -161,479 -290,972 -389,1479 -100,507 -171,1010 -212,1510 -41,502 -62,956 -62,1362l0 5041c0,471 71,848 211,1135 141,288 331,503 571,651 241,146 521,241 838,289 319,47 656,71 1009,71l893 0 0 1346z"/>
  <path class="fil0" d="M112506 23042l0 1346 -8630 0 0 -1346 266 0c366,0 708,-26 1026,-78 318,-52 595,-160 831,-321 233,-162 421,-394 562,-697 141,-302 214,-704 214,-1206l0 -10003c0,-469 -72,-848 -214,-1135 -140,-287 -332,-509 -571,-665 -240,-157 -520,-262 -838,-314 -318,-52 -656,-78 -1010,-78l-94 0 0 -1347 5187 0 422 2600 157 0c333,-596 685,-1083 1057,-1464 370,-381 761,-678 1173,-893 413,-214 852,-360 1315,-438 463,-78 953,-118 1463,-118 846,0 1601,123 2264,368 661,246 1226,621 1690,1128 463,506 820,1156 1064,1950 246,793 369,1738 369,2833l0 7577c0,502 59,904 179,1206 120,303 291,535 509,697 219,162 481,269 784,321 303,52 631,78 987,78l109 0 0 1346 -5590 0 0 -11069c0,-699 -62,-1320 -187,-1863 -127,-543 -327,-1002 -603,-1378 -276,-376 -638,-660 -1088,-854 -449,-192 -996,-289 -1644,-289 -731,0 -1345,141 -1840,422 -496,282 -895,664 -1197,1143 -303,480 -520,1033 -650,1659 -130,627 -196,1284 -196,1973l0 6763c0,471 70,849 211,1136 142,288 332,503 572,650 241,147 520,242 837,290 319,47 655,71 1010,71l94 0z"/>
  <path class="fil0" d="M36527 18266c0,679 -100,1295 -298,1848 -198,553 -483,1023 -854,1410 -370,386 -819,682 -1346,892 -527,209 -1114,313 -1761,313 -887,0 -1542,-247 -1965,-743 -424,-496 -634,-1245 -634,-2246 0,-626 81,-1181 243,-1660 162,-480 429,-885 806,-1214 375,-328 869,-585 1479,-766 611,-183 1370,-295 2278,-337l2051 -94 0 2599zm5009 4775c-354,0 -661,-36 -916,-110 -256,-73 -462,-199 -618,-376 -157,-176 -272,-412 -345,-704 -72,-292 -109,-663 -109,-1112l0 -8314c0,-1022 -123,-1885 -367,-2591 -246,-705 -614,-1276 -1104,-1714 -491,-439 -1103,-754 -1832,-947 -731,-193 -1586,-290 -2567,-290 -794,0 -1541,58 -2240,173 -699,115 -1312,295 -1839,539 -443,206 -802,466 -1087,771 40,-2 79,-5 119,-5l4937 0c521,0 1009,131 1429,358 42,18 89,31 128,51 392,193 691,465 900,815 111,188 201,398 271,626 70,199 116,408 135,623l0 2c63,486 95,1016 95,1589l0 1927 -2662 94c-2453,73 -4285,522 -5495,1347 -1211,825 -1815,2088 -1815,3789 0,876 126,1636 375,2277 251,642 597,1175 1041,1598 444,423 971,736 1582,940 610,203 1270,304 1980,304 668,0 1240,-75 1714,-226 476,-152 900,-363 1276,-634 376,-271 720,-595 1033,-970 313,-376 636,-788 971,-1237l265 0 501 2755 4336 0 0 -1346 -94 0z"/>
  <path class="fil0" d="M49330 2322c0,376 -308,683 -684,683l-1641 0c-374,0 -682,-307 -682,-683l0 -1640c0,-365 290,-665 650,-682l1705 0c361,17 652,317 652,682l0 1640z"/>
  <path class="fil0" d="M20259 22079c-114,265 -270,469 -463,610 -192,141 -428,235 -704,282 -86,16 -182,23 -275,33l0 1383 6192 0 0 -1462c-258,-58 -494,-147 -696,-283 -240,-162 -429,-394 -564,-697 -136,-302 -203,-704 -203,-1206l0 -15593c0,-501 68,-902 203,-1204 136,-302 324,-535 564,-698 202,-136 438,-224 696,-283l0 -1463 -5534 0 -6575 18334 -6638 -18334 -6262 0 0 1377c124,11 249,22 367,40 319,47 598,148 838,306 240,156 430,377 571,664 141,288 212,667 212,1136l0 15873c0,471 -71,849 -212,1137 -141,286 -331,503 -571,649 -240,146 -519,242 -838,289 -119,18 -244,29 -367,40l0 1376 5489 0 0 -1399c-63,-10 -129,-13 -189,-25 -287,-53 -533,-159 -737,-321 -203,-162 -357,-394 -461,-697 -104,-302 -156,-704 -156,-1206l0 -16783 7437 20430 1738 0 7342 -20492 0 17127c-20,438 -88,789 -203,1057z"/>
  <path class="fil0" d="M18191 30130l4010 13887c302,1064 570,2085 805,3061 236,975 426,1834 572,2576 156,-773 336,-1584 540,-2435 204,-851 453,-1793 743,-2826l2818 -9894c31,-127 68,-267 109,-423 42,-157 78,-313 110,-470 31,-156 60,-302 86,-437 25,-136 39,-250 39,-345 0,-553 -174,-951 -525,-1197 -350,-245 -878,-368 -1588,-368l-736 0 0 -1346 7827 0 0 1346 -610 0c-313,0 -588,31 -821,95 -235,62 -447,183 -635,359 -188,178 -359,428 -517,752 -156,323 -312,751 -469,1284l-5417 19053 -2882 0 -5227 -17957 -4901 17957 -2959 0 -5871 -19852c-104,-333 -221,-611 -351,-829 -131,-219 -285,-392 -462,-516 -178,-126 -387,-214 -627,-266 -240,-52 -517,-79 -830,-79l-422 0 0 -1346 8829 0 0 1346 -736 0c-647,0 -1129,123 -1447,368 -319,246 -478,634 -478,1166 0,178 27,361 79,549 53,186 110,401 173,642l2943 10254c271,970 526,1924 767,2857 239,934 447,1787 625,2560 157,-837 342,-1747 557,-2733 213,-986 462,-1997 743,-3030l3819 -13761 2317 0z"/>
  <path class="fil0" d="M47776 51453c366,0 707,-25 1026,-78 320,-53 596,-159 829,-321 236,-162 425,-394 564,-697 142,-303 214,-704 214,-1206l0 -17190c0,-469 -73,-848 -214,-1135 -140,-287 -331,-509 -569,-665 -242,-157 -520,-258 -840,-305 -319,-46 -654,-71 -1010,-71l-406 0 0 -1347 6058 0 0 20713c0,502 69,903 204,1206 135,303 324,535 563,697 241,162 520,268 838,321 318,53 542,78 907,78l170 0 0 1347 -8739 0 0 -1347 406 0z"/>
  <path class="fil0" d="M66237 51453l0 1347 -9081 0 0 -1347 186 0c365,0 588,-25 906,-78 319,-53 596,-159 829,-321 237,-162 424,-394 564,-697 141,-303 211,-704 211,-1206l0 -11542 0 -1519 0 -1596c0,-960 129,-1805 391,-2536 261,-730 637,-1346 1128,-1847 491,-501 1085,-880 1785,-1135 699,-255 1487,-384 2363,-384 835,0 1540,55 2115,164 573,110 1034,263 1385,462 349,199 602,434 760,705 156,272 234,575 234,908 0,293 -64,551 -195,775 -129,225 -314,412 -547,564 -235,152 -513,266 -830,344 -319,79 -671,118 -1058,118 0,-323 -35,-638 -102,-947 -68,-308 -181,-581 -343,-822 -163,-241 -379,-433 -650,-580 -270,-146 -611,-219 -1017,-219 -460,0 -845,90 -1151,267 -309,178 -555,441 -745,791 -188,349 -319,780 -399,1291 -77,511 -117,1107 -117,1784l0 1894 4523 0 0 1519 -4523 0 0 11542c0,502 71,903 211,1206 142,303 330,535 564,697 234,162 513,268 839,321 323,53 661,78 1017,78l747 0z"/>
  <path class="fil0" d="M77003 51453l0 1347 -9673 0 0 -1347 188 0c365,0 706,-25 1025,-78 318,-53 596,-159 828,-321 236,-162 423,-394 565,-697 141,-303 211,-704 211,-1206l0 -11542 -2929 0 0 -1519 2929 0 0 -1596c0,-960 129,-1805 390,-2536 260,-730 636,-1346 1129,-1847 489,-501 1084,-880 1783,-1135 700,-255 1488,-384 2365,-384 835,0 1540,55 2112,164 573,110 1038,263 1385,462 351,199 604,434 761,705 155,272 234,575 234,908 0,293 -66,551 -196,775 -131,225 -313,412 -548,564 -236,152 -512,266 -829,344 -319,79 -672,118 -1057,118 0,-323 -34,-638 -102,-947 -68,-308 -183,-581 -344,-822 -162,-241 -378,-433 -650,-580 -272,-146 -611,-219 -1017,-219 -461,0 -844,90 -1150,267 -309,178 -556,441 -745,791 -187,349 -321,780 -399,1291 -78,511 -117,1107 -117,1784l0 1894 4524 0 0 1519 -4524 0 0 11542c0,502 69,903 210,1206 141,303 331,535 564,697 236,162 515,268 838,321 324,53 662,78 1018,78l1220 0z"/>
  <path class="fil0" d="M34239 44173c0,1190 78,2239 235,3146 157,908 410,1668 760,2278 349,611 803,1073 1362,1385 557,313 1238,470 2041,470 804,0 1483,-157 2036,-470 553,-313 1002,-774 1347,-1385 344,-610 591,-1370 743,-2278 151,-907 227,-1957 227,-3146 0,-1190 -79,-2233 -234,-3130 -157,-898 -409,-1647 -752,-2247 -345,-600 -797,-1052 -1354,-1354 -559,-303 -1240,-455 -2045,-455 -803,0 -1481,152 -2034,455 -554,302 -1003,754 -1347,1354 -344,600 -595,1349 -751,2247 -157,897 -235,1940 -235,3130zm11868 0c0,3017 -640,5261 -1917,6733 -1280,1471 -3150,2207 -5615,2207 -1158,0 -2196,-183 -3114,-548 -918,-365 -1699,-918 -2341,-1659 -643,-740 -1133,-1672 -1472,-2795 -340,-1122 -509,-2434 -509,-3938 0,-2996 635,-5224 1903,-6684 1268,-1462 3144,-2192 5628,-2192 1158,0 2197,180 3115,540 918,359 1699,908 2340,1644 643,735 1132,1659 1472,2770 340,1113 510,2420 510,3922z"/>
  <path class="fil1" d="M122204 64645c-483,46 -2441,277 -3084,323 -644,46 -5408,644 -5616,644 -206,0 -460,92 -598,392 -139,299 92,1197 529,1519 437,323 1219,185 1219,185 0,0 -827,2071 -1173,2992 -345,921 -2209,5616 -2302,6007 -92,391 230,898 461,1128 229,231 598,184 828,-46 230,-230 207,-323 345,-713 138,-392 1058,-2647 1427,-3498 369,-852 2877,-6330 2877,-6330 0,0 2140,-437 2992,-575 851,-138 2417,-529 3061,-828 645,-299 783,-598 852,-990 69,-392 -1335,-253 -1818,-207zm-13212 1818c-323,-23 -483,-23 -644,0 -161,24 -1128,2186 -1542,3199 -415,1013 -1658,5593 -1680,6054 -23,460 345,828 529,898 186,68 599,229 830,-254 230,-483 1335,-3590 1726,-4649 391,-1059 1565,-3407 1772,-3821 207,-413 69,-782 -92,-967 -161,-183 -575,-436 -898,-460zm-47793 11831c240,-656 746,-1137 914,-1138 241,-2 -28,1055 -253,1599 -284,685 -1190,2161 -1190,2161 76,-1371 366,-2174 529,-2622zm39360 5892c-183,161 -598,1082 -873,1405 -277,322 -461,322 -622,-116 -162,-437 -506,-3912 -506,-4487 0,-575 -24,-1289 -254,-1842 -230,-552 -1196,-460 -1634,-298 -437,161 -2370,2462 -3107,3383 -736,921 -2209,2716 -2485,2853 -276,139 -253,-1495 -230,-2417 23,-921 437,-2785 437,-2785 0,0 1565,-3267 2025,-4189 461,-920 1105,-2232 1219,-2670 116,-438 185,-1243 -1036,-1657 -1219,-414 -2537,1999 -3153,3706 -383,1062 -967,4534 -967,4534 -160,300 -1404,2670 -1888,3453 -484,783 -1588,2164 -1749,2279 -162,115 -552,414 -737,69 -184,-345 0,-2370 138,-2969 138,-598 967,-1496 1242,-1727 277,-230 369,-437 437,-829 70,-391 -589,-844 -920,-874 -298,-28 -921,-69 -1243,390 -323,460 -1266,1289 -1496,1496 -230,207 -852,530 -852,530 0,0 -322,-2302 -392,-2785 -69,-484 -138,-1151 -92,-1565 46,-415 -69,-852 -414,-1174 -345,-322 -1312,-92 -1588,23 -276,115 -299,598 -621,920 -322,322 -1979,2923 -2624,3982 -644,1059 -2463,3936 -2739,4120 -276,184 -529,-874 -759,-2232 -231,-1359 45,-3430 138,-3867 92,-438 46,-737 -161,-899 -208,-161 -760,-345 -1036,-345 -276,0 -760,230 -1081,667 -323,437 -2762,3981 -2762,3981l645 -4211c0,0 0,0 92,-645 92,-644 -667,-828 -944,-898 -276,-68 -529,-23 -644,0 -115,23 -391,46 -483,461 -92,414 -668,4925 -668,4925 -1680,2647 -2624,3384 -3176,3821 -553,437 -990,345 -1474,-114 -483,-461 -690,-2118 -690,-2118 1565,-2072 2877,-4350 3200,-5547 322,-1197 -408,-2443 -1658,-2578 -1910,-207 -2802,1899 -3107,2624 -898,2140 -553,5202 -553,5202 -1634,2233 -2417,2923 -2601,3084 -184,161 -530,300 -829,-161 -299,-460 -460,-1749 -575,-3015 -115,-1266 -45,-2900 92,-4350 138,-1449 713,-3774 921,-4418 207,-645 690,-2164 806,-2786 115,-621 -553,-805 -875,-851 -322,-46 -828,115 -967,207 -138,93 -500,651 -805,1013 -622,737 -2371,3222 -2969,4097 -599,875 -1497,2463 -2071,3383 -575,920 -1382,2417 -1382,2417 161,-1519 920,-5570 1151,-6767 231,-1196 1519,-5892 1680,-6605 161,-713 -46,-943 -299,-1151 -254,-207 -1059,-185 -1197,-161 -138,23 -415,137 -506,322 -92,184 -1841,2509 -2785,3889 -943,1382 -3452,5640 -4511,7481 -1059,1841 -2680,5660 -2762,5846 -62,140 -8,380 115,621 169,331 644,714 1128,645 483,-69 783,-599 1059,-1566 276,-967 1645,-3779 2440,-5225 1270,-2308 3682,-6307 4005,-6813 227,-356 207,161 92,782 -115,622 -967,5156 -1082,5939 -115,782 -736,5478 -736,6214 0,737 437,1197 1059,1358 621,161 1151,-575 1404,-1059 253,-484 1910,-3866 2716,-5248 805,-1380 2348,-3820 2532,-4119 184,-299 184,138 184,138 -115,782 -368,3845 -346,5892 23,2049 507,4120 1358,5179 851,1059 2209,944 3107,345 898,-598 2118,-2347 2118,-2347 529,1081 1749,2301 2853,2371 1105,69 1911,-552 2394,-1036 483,-483 1243,-1703 1243,-1703 0,0 -69,736 0,1128 69,392 530,897 990,990 460,92 967,-369 1335,-897 369,-530 2509,-4282 2624,-4466 115,-183 230,-69 276,161 46,231 207,1404 460,2485 253,1083 852,1842 1450,2280 599,437 1681,230 2233,-392 552,-622 1611,-2210 2532,-3820 919,-1610 1933,-3222 2048,-3384 115,-161 230,-91 254,69 23,161 115,736 230,1427 115,690 161,2325 161,2325 -1197,851 -1565,1519 -1979,2371 -415,852 206,1519 530,1727 322,207 1312,115 2347,-714 1035,-829 990,-2647 990,-2647l713 -621c-92,2854 437,3682 1220,4212 782,530 1748,115 2578,-598 828,-714 2142,-2762 2142,-2762 -23,529 92,1750 668,2578 575,829 1588,713 2302,299 713,-414 2255,-2301 2761,-2968 451,-596 1230,-1484 1611,-1842 239,-224 276,115 276,115 599,4764 1128,5294 1773,5847 645,552 1772,46 2256,-737 483,-782 575,-2186 552,-2485 -22,-299 -460,-668 -645,-507z"/>
 </g>
</svg>
